<?xml version="1.0" encoding="utf-8"?>
<!-- Generator: Adobe Illustrator 16.0.0, SVG Export Plug-In . SVG Version: 6.00 Build 0)  -->
<!DOCTYPE svg PUBLIC "-//W3C//DTD SVG 1.1//EN" "http://www.w3.org/Graphics/SVG/1.1/DTD/svg11.dtd">
<svg version="1.1" id="Layer_1" xmlns="http://www.w3.org/2000/svg" xmlns:xlink="http://www.w3.org/1999/xlink" x="0px" y="0px"
	 width="360px" height="144px" viewBox="0 0 360 144" enable-background="new 0 0 360 144" xml:space="preserve">
<g>
	<path fill="#977A68" d="M35.916,71.5c0,0,1.131-0.038,3.251-0.108c2.121-0.062,5.23-0.195,9.188-0.279
		c7.916-0.171,19.225-0.531,32.795-0.756c6.785-0.107,14.136-0.222,21.91-0.344c7.775-0.086,15.974-0.176,24.455-0.27
		c8.481-0.052,17.246-0.164,26.151-0.172c8.905-0.023,17.952-0.046,26.999-0.07c9.047,0.023,18.094,0.045,26.999,0.068
		c8.906,0.001,17.67,0.119,26.152,0.17c8.48,0.093,16.68,0.183,24.455,0.268c7.773,0.086,15.125,0.218,21.91,0.345
		c6.785,0.105,13.004,0.262,18.518,0.404c5.514,0.137,10.318,0.257,14.277,0.355c3.957,0.085,7.068,0.218,9.188,0.281
		c2.121,0.071,3.252,0.108,3.252,0.108s-1.131,0.038-3.252,0.108c-2.119,0.062-5.23,0.196-9.188,0.281
		c-3.959,0.099-8.764,0.218-14.277,0.355c-5.514,0.142-11.732,0.299-18.518,0.404c-6.785,0.127-14.137,0.258-21.91,0.345
		c-7.775,0.085-15.975,0.175-24.455,0.269c-8.482,0.051-17.246,0.168-26.152,0.17c-8.904,0.021-17.951,0.045-26.999,0.067
		c-9.047-0.023-18.094-0.047-26.999-0.069c-8.906-0.009-17.67-0.121-26.151-0.173c-8.481-0.094-16.68-0.184-24.455-0.27
		c-7.774-0.122-15.125-0.237-21.91-0.344c-13.57-0.225-24.879-0.584-32.795-0.756c-3.958-0.084-7.068-0.218-9.188-0.279
		C37.046,71.538,35.916,71.5,35.916,71.5z"/>
</g>
</svg>
