<?xml version="1.0" encoding="utf-8"?>
<!-- Generator: Adobe Illustrator 16.0.0, SVG Export Plug-In . SVG Version: 6.00 Build 0)  -->
<!DOCTYPE svg PUBLIC "-//W3C//DTD SVG 1.1//EN" "http://www.w3.org/Graphics/SVG/1.1/DTD/svg11.dtd">
<svg version="1.1" xmlns="http://www.w3.org/2000/svg" xmlns:xlink="http://www.w3.org/1999/xlink" x="0px" y="0px" width="360px"
	 height="144px" viewBox="0 0 360 144" enable-background="new 0 0 360 144" xml:space="preserve">
<g id="Layer_1">
	<g id="Layer_5">
	</g>
	<g id="Layer_3" display="none">
		<g id="o5Nk9J_1_" display="inline">
		</g>
	</g>
	<g id="Layer_6">
	</g>
	<g id="Layer_7">
		<g>
			<g>
				<defs>
					<rect id="SVGID_1_" x="41.506" y="-1.001" width="284.994" height="130.5"/>
				</defs>
				<clipPath id="SVGID_2_">
					<use xlink:href="#SVGID_1_"  overflow="visible"/>
				</clipPath>
				<ellipse clip-path="url(#SVGID_2_)" fill="#2C2736" cx="179.736" cy="-47.237" rx="135.672" ry="136.933"/>
			</g>
		</g>
	</g>
	<g id="Layer_8" display="none">
		
			<text transform="matrix(1 0 0 1 132.2632 -71.6299)" display="inline" fill="none" stroke="#977A67" stroke-width="1.7188" stroke-miterlimit="10" font-family="'COUTURE-Bold'" font-size="49.5026">A</text>
		
			<text transform="matrix(1 0 0 1 148.7529 -35.873)" display="inline" fill="none" stroke="#977A67" stroke-width="1.7188" stroke-miterlimit="10" font-family="'COUTURE-Bold'" font-size="49.5026">c</text>
		
			<image display="inline" overflow="visible" enable-background="new    " width="409" height="312" xlink:href="../../../../../../../Desktop/Screen Shot 2013-10-18 at 8.33.35 PM.png"  transform="matrix(1 0 0 1 3.3335 -309)">
		</image>
	</g>
	<g id="Layer_9">
	</g>
	<g id="Layer_4">
		<circle fill="none" stroke="#977A67" stroke-width="0.8511" stroke-miterlimit="10" cx="-122.396" cy="123.283" r="2.125"/>
		<circle fill="none" stroke="#977A67" stroke-width="0.8511" stroke-miterlimit="10" cx="-122.397" cy="123.283" r="6.197"/>
		<path fill="none" stroke="#977A67" stroke-width="0.8511" stroke-miterlimit="10" d="M-131.605,123.283
			c0-5.084,4.123-9.208,9.208-9.208c5.089,0,9.208,4.124,9.208,9.208c0,5.085-4.119,9.208-9.208,9.208
			C-127.482,132.491-131.605,128.368-131.605,123.283z"/>
		
			<line fill="none" stroke="#977A67" stroke-width="0.8511" stroke-miterlimit="10" x1="-136.739" y1="133.553" x2="-107.877" y2="133.553"/>
		<path fill="none" stroke="#977A67" stroke-width="0.8511" stroke-miterlimit="10" d="M-131.605,148.074h-16.29
			c0,0,3.277,17.531,21.603,20.982l3.896,4.869V129.48"/>
		
			<line fill="none" stroke="#977A67" stroke-width="0.8511" stroke-miterlimit="10" x1="-131.605" y1="148.074" x2="-131.605" y2="156.041"/>
		
			<line fill="none" stroke="#977A67" stroke-width="0.8511" stroke-miterlimit="10" x1="-112.304" y1="156.041" x2="-112.304" y2="148.074"/>
		<path fill="none" stroke="#977A67" stroke-width="0.8511" stroke-miterlimit="10" d="M-112.304,148.074h15.404
			c0,0-4.516,19.123-21.602,20.982l-3.896,4.869"/>
		
			<line fill="none" stroke="#977A67" stroke-width="0.8511" stroke-miterlimit="10" x1="-136.739" y1="140.281" x2="-126.823" y2="140.281"/>
		
			<line fill="none" stroke="#977A67" stroke-width="0.8511" stroke-miterlimit="10" x1="-126.823" y1="140.281" x2="-126.823" y2="160.823"/>
		<path fill="none" stroke="#977A67" stroke-width="0.8511" stroke-miterlimit="10" d="M-118.5,140.281v20.542
			c0,0,5.961,0.057,15.347-8.854c0,0,5.901-3.72,6.256-3.895"/>
		
			<line fill="none" stroke="#977A67" stroke-width="0.8511" stroke-miterlimit="10" x1="-118.5" y1="140.281" x2="-107.877" y2="140.281"/>
		
			<line fill="none" stroke="#977A67" stroke-width="0.8511" stroke-miterlimit="10" x1="-107.877" y1="140.281" x2="-107.877" y2="133.553"/>
		
			<line fill="none" stroke="#977A67" stroke-width="0.8511" stroke-miterlimit="10" x1="-136.739" y1="140.281" x2="-136.739" y2="133.553"/>
		
			<line fill="none" stroke="#977A67" stroke-width="0.8511" stroke-miterlimit="10" x1="-131.605" y1="148.074" x2="-135.367" y2="151.837"/>
		
			<line fill="none" stroke="#977A67" stroke-width="0.8511" stroke-miterlimit="10" x1="-135.367" y1="151.837" x2="-131.383" y2="155.822"/>
		
			<line fill="none" stroke="#977A67" stroke-width="0.8511" stroke-miterlimit="10" x1="-135.367" y1="151.837" x2="-141.52" y2="151.837"/>
		
			<line fill="none" stroke="#977A67" stroke-width="0.8511" stroke-miterlimit="10" x1="-103.392" y1="151.837" x2="-109.177" y2="151.837"/>
		
			<line fill="none" stroke="#977A67" stroke-width="0.8511" stroke-miterlimit="10" x1="-109.177" y1="151.837" x2="-112.304" y2="148.074"/>
		
			<line fill="none" stroke="#977A67" stroke-width="0.8511" stroke-miterlimit="10" x1="-109.177" y1="151.837" x2="-112.304" y2="155.822"/>
		<path fill="none" stroke="#977A67" stroke-width="0.8511" stroke-miterlimit="10" d="M-122.662,164.984l-4.161-4.161
			c0,0-3.307-0.062-7.202-2.833c-3.896-2.773-5.05-4.381-8.028-6.153l-5.842-3.764"/>
		
			<line fill="none" stroke="#977A67" stroke-width="0.8511" stroke-miterlimit="10" x1="-122.101" y1="164.984" x2="-118.222" y2="161.104"/>
		<path fill="none" stroke="#977A67" stroke-width="0.8511" stroke-miterlimit="10" d="M-147.578,148.275
			c6.197,3.896,7.12,6.703,7.12,6.703c4.437,10.291,17.825,10.418,17.825,10.418l-3.659,3.66"/>
		<path fill="none" stroke="#977A67" stroke-width="0.8511" stroke-miterlimit="10" d="M-118.5,169.057l-3.631-3.629
			c0,0,8.884-0.589,13.901-5.078c0,0,4.779-5.136,5.547-6.519c0,0,3.347-4.325,4.892-5.218"/>
		
			<line fill="none" stroke="#977A67" stroke-width="0.8511" stroke-miterlimit="10" x1="-134.437" y1="136.916" x2="-110.736" y2="136.916"/>
		
			<line fill="none" stroke="#977A67" stroke-width="0.8511" stroke-miterlimit="10" x1="-126.823" y1="140.281" x2="-118.5" y2="140.281"/>
		
			<line fill="none" stroke="#977A67" stroke-width="0.8511" stroke-miterlimit="10" x1="-126.823" y1="140.281" x2="-118.5" y2="133.553"/>
		
			<line fill="none" stroke="#977A67" stroke-width="0.8511" stroke-miterlimit="10" x1="-126.469" y1="133.553" x2="-118.5" y2="140.281"/>
	</g>
	<g id="Layer_10">
	</g>
	<g>
		<path fill="#977A67" d="M163.717,19.61c0,0,0.407-0.966,1.375-1.622c0.116-0.091,0.248-0.164,0.385-0.244
			c0.128-0.089,0.295-0.133,0.447-0.167c0.325-0.035,0.651,0.082,0.867,0.247c0.213,0.183,0.332,0.364,0.358,0.536
			c0.044,0.149,0.039,0.245,0.039,0.245l-0.093,0.102c0,0-0.084,0.017-0.231,0.046c-0.134,0.024-0.289,0.073-0.416,0.119
			c-0.067,0.031-0.13,0.066-0.184,0.078c-0.063,0.041-0.118,0.048-0.184,0.055c-0.133,0.01-0.332-0.061-0.538-0.01
			c-0.414,0.064-0.842,0.276-1.176,0.423c-0.328,0.162-0.549,0.286-0.549,0.286L163.717,19.61z"/>
	</g>
	<g>
		<path fill="#977A67" d="M194.708,19.788c0,0-0.236-0.091-0.584-0.204c-0.352-0.098-0.806-0.246-1.225-0.25
			c-0.211-0.02-0.396,0.078-0.53,0.087c-0.067,0.003-0.122,0.004-0.19-0.027c-0.055-0.003-0.122-0.03-0.193-0.05
			c-0.132-0.027-0.293-0.053-0.428-0.058c-0.15-0.008-0.236-0.012-0.236-0.012l-0.105-0.088c0,0-0.02-0.093,0.003-0.247
			c0.001-0.174,0.093-0.37,0.277-0.583c0.19-0.195,0.496-0.356,0.823-0.369c0.154,0.012,0.326,0.031,0.467,0.101
			c0.146,0.06,0.288,0.113,0.416,0.186c1.053,0.51,1.594,1.407,1.594,1.407L194.708,19.788z"/>
	</g>
</g>
<g id="Layer_2">
	<g>
		<path fill="#977A67" d="M166.391,17.822c-1.953,1.458-3.72,3.141-5.382,4.908c-1.649,1.781-3.152,3.694-4.455,5.731
			c-2.589,4.068-4.429,8.661-4.847,13.445c-0.227,2.384-0.08,4.791,0.307,7.143c0.439,2.34,1.245,4.614,2.27,6.761
			c1.046,2.141,2.377,4.137,3.982,5.888c1.597,1.757,3.483,3.237,5.532,4.43c4.114,2.4,8.899,3.471,13.668,3.719l1.802,0.065
			c0.569,0.002,1.178-0.017,1.77-0.051c1.191-0.071,2.383-0.202,3.564-0.386c2.364-0.371,4.696-0.958,6.931-1.794
			c2.23-0.841,4.362-1.941,6.281-3.336c1.91-1.401,3.608-3.093,4.944-5.047c1.345-1.948,2.321-4.138,2.978-6.423
			c0.668-2.286,0.971-4.678,1.057-7.075l0.003-0.071l0.021-0.07c0.176-0.589,0.301-1.268,0.384-1.92
			c0.087-0.66,0.128-1.328,0.139-1.997c0.023-1.338-0.09-2.681-0.335-4.002c-0.474-2.649-1.47-5.194-2.802-7.548
			c-0.326-0.594-0.691-1.165-1.062-1.732c-0.381-0.561-0.771-1.117-1.188-1.654c-0.829-1.077-1.729-2.102-2.685-3.074
			c-0.949-0.979-1.971-1.886-3.007-2.777l-1.598-1.286l-1.652-1.219l1.709,1.143l1.66,1.214c0.534,0.43,1.074,0.855,1.597,1.3
			c0.508,0.462,1.043,0.896,1.529,1.384c0.997,0.947,1.942,1.952,2.821,3.016c0.441,0.53,0.858,1.082,1.266,1.64
			c0.397,0.565,0.79,1.135,1.145,1.73c1.459,2.355,2.512,4.976,3.072,7.708c0.282,1.366,0.431,2.762,0.437,4.163
			c0.003,0.7-0.025,1.402-0.103,2.102c-0.078,0.707-0.18,1.383-0.381,2.111l0.023-0.141c-0.039,2.467-0.302,4.952-0.953,7.359
			c-0.641,2.407-1.679,4.723-3.083,6.798c-1.401,2.08-3.191,3.886-5.197,5.376c-2.014,1.484-4.241,2.65-6.561,3.542
			c-2.322,0.886-4.734,1.51-7.178,1.91c-1.223,0.199-2.454,0.342-3.693,0.424c-0.624,0.038-1.232,0.07-1.881,0.06l-1.849-0.08
			c-4.922-0.288-9.913-1.429-14.231-3.984c-2.149-1.269-4.129-2.844-5.797-4.704c-1.677-1.853-3.058-3.957-4.136-6.199
			c-1.067-2.249-1.827-4.633-2.249-7.089c-0.356-2.458-0.452-4.953-0.168-7.417c0.263-2.464,0.903-4.875,1.806-7.168
			c0.889-2.302,2.098-4.463,3.483-6.486c1.391-2.021,2.974-3.901,4.693-5.637C162.516,20.791,164.375,19.192,166.391,17.822z"/>
	</g>
	<g>
		<path fill="#977A67" d="M172.848,73.388c0.243-0.071,0.492-0.156,0.675-0.266c0.194-0.097,0.403-0.219,0.589-0.354
			c0.383-0.257,0.72-0.591,1.058-0.906c0.335-0.322,0.646-0.674,0.956-1.02c0.153-0.175,0.303-0.354,0.446-0.535
			c0.138-0.177,0.286-0.383,0.374-0.557l-0.31,1.109c-0.147-0.295-0.339-0.623-0.44-0.947c-0.115-0.326-0.158-0.667-0.185-1.015
			c-0.027-0.349-0.028-0.698-0.012-1.064c0.01-0.188,0.017-0.364,0.034-0.568c0.007-0.191,0.022-0.391,0.009-0.636l0.176-0.212
			c0.265,0.005,0.521,0.09,0.747,0.203c0.219,0.11,0.423,0.25,0.601,0.396c0.356,0.298,0.651,0.637,0.875,0.99
			c0.228,0.354,0.416,0.723,0.507,1.114c0.104,0.394,0.102,0.789,0.116,1.222l0.029,0.875l-0.34,0.235l-0.684,0.475
			c-0.218,0.152-0.438,0.3-0.663,0.441c-0.443,0.289-0.917,0.536-1.407,0.753c-0.486,0.223-1.002,0.392-1.534,0.503
			c-0.266,0.058-0.528,0.094-0.812,0.108c-0.294,0.02-0.537-0.026-0.786-0.068L172.848,73.388z"/>
	</g>
	<g>
		<path fill="#977A67" d="M164.775,71.925c0.281-0.052,0.59-0.073,0.849-0.149c0.261-0.059,0.512-0.131,0.767-0.23
			c0.502-0.188,0.965-0.438,1.395-0.724c0.426-0.292,0.827-0.606,1.193-0.956c0.181-0.177,0.355-0.358,0.508-0.556
			c0.075-0.101,0.146-0.202,0.21-0.306c0.059-0.096,0.136-0.221,0.148-0.278l-0.236,0.397c-0.015-0.02,0.003-0.108,0.006-0.172
			c0.005-0.069,0.012-0.141,0.025-0.211c0.019-0.143,0.042-0.285,0.081-0.426c0.073-0.283,0.175-0.564,0.273-0.856
			c0.1-0.292,0.226-0.596,0.336-0.927l0.19-0.526c0.066-0.187,0.127-0.381,0.215-0.604l0.257-0.1
			c0.409,0.238,0.731,0.579,0.968,0.958c0.229,0.381,0.412,0.801,0.496,1.23c0.088,0.429,0.126,0.87,0.08,1.299
			c-0.024,0.214-0.072,0.426-0.14,0.634c-0.03,0.105-0.069,0.208-0.116,0.312c-0.047,0.11-0.084,0.194-0.16,0.344l-0.175,0.344
			l-0.061,0.053c-0.177,0.155-0.299,0.233-0.445,0.333c-0.141,0.094-0.279,0.185-0.42,0.269c-0.275,0.176-0.553,0.34-0.833,0.495
			c-0.284,0.15-0.571,0.29-0.866,0.412c-0.297,0.117-0.599,0.221-0.909,0.296c-0.61,0.175-1.25,0.237-1.87,0.224
			c-0.307-0.001-0.621-0.032-0.929-0.083c-0.31-0.035-0.567-0.15-0.854-0.222L164.775,71.925z"/>
	</g>
	<g>
		<path fill="#977A67" d="M159.606,69.463c0.597-0.103,1.147-0.201,1.695-0.359c0.549-0.146,1.079-0.347,1.598-0.551
			c0.519-0.205,1.021-0.444,1.512-0.686c0.245-0.125,0.485-0.254,0.719-0.39l0.34-0.213c0.106-0.069,0.225-0.161,0.292-0.223
			l-0.465,0.442l0.141-0.551c0.049-0.194,0.097-0.388,0.156-0.574c0.107-0.376,0.273-0.721,0.437-1.074l0.493-1.09
			c0.071-0.191,0.167-0.396,0.236-0.614c0.091-0.225,0.14-0.452,0.237-0.732l0.255-0.104c0.235,0.162,0.469,0.363,0.629,0.598
			c0.184,0.232,0.31,0.489,0.424,0.759c0.207,0.537,0.298,1.114,0.287,1.672c-0.017,0.554-0.109,1.101-0.327,1.591
			c-0.103,0.248-0.233,0.481-0.38,0.707l-0.231,0.332l-0.264,0.351l-0.28,0.373l-0.185,0.07c-0.191,0.072-0.334,0.108-0.492,0.159
			l-0.458,0.138c-0.302,0.089-0.605,0.167-0.908,0.238c-0.604,0.148-1.224,0.227-1.838,0.28c-0.613,0.061-1.234,0.046-1.843,0.007
			c-0.302-0.018-0.609-0.051-0.914-0.096c-0.306-0.038-0.583-0.124-0.876-0.183L159.606,69.463z"/>
	</g>
	<g>
		<path fill="#977A67" d="M154.3,66.161c0.314,0.029,0.624,0.024,0.9,0.004c0.295-0.022,0.586-0.058,0.875-0.111
			c0.579-0.106,1.143-0.285,1.701-0.461c0.557-0.187,1.103-0.404,1.643-0.625c0.536-0.227,1.072-0.472,1.539-0.788l-0.681,0.656
			c0.084-0.397,0.172-0.833,0.313-1.223c0.142-0.396,0.345-0.764,0.559-1.129c0.214-0.366,0.457-0.719,0.711-1.074
			c0.139-0.178,0.257-0.354,0.409-0.538c0.135-0.184,0.281-0.367,0.436-0.588l0.274-0.024c0.181,0.221,0.31,0.48,0.399,0.737
			c0.092,0.254,0.146,0.516,0.188,0.77c0.071,0.51,0.08,1.013,0.023,1.489c-0.055,0.478-0.142,0.946-0.316,1.377
			c-0.173,0.437-0.417,0.823-0.688,1.235l-0.394,0.597l-0.288,0.06c-1.321,0.273-2.559,0.553-3.872,0.572
			c-0.647,0.027-1.303-0.016-1.948-0.107c-0.323-0.049-0.643-0.117-0.956-0.2c-0.332-0.097-0.622-0.222-0.896-0.361L154.3,66.161z"
			/>
	</g>
	<g>
		<path fill="#977A67" d="M150.584,61.37c0.234,0.216,0.443,0.25,0.712,0.311c0.254,0.046,0.522,0.05,0.792,0.031
			c0.542-0.04,1.086-0.176,1.627-0.312c0.541-0.146,1.077-0.324,1.611-0.502c0.267-0.093,0.532-0.188,0.794-0.294
			c0.257-0.102,0.528-0.231,0.749-0.356l-0.476,0.27c0.021-0.048,0.084-0.136,0.128-0.211l0.148-0.236
			c0.099-0.158,0.208-0.307,0.319-0.456c0.224-0.292,0.493-0.548,0.766-0.813c0.275-0.264,0.562-0.524,0.872-0.802
			c0.325-0.274,0.629-0.572,1.046-0.913l0.271,0.053c0.109,0.243,0.204,0.505,0.236,0.757c0.054,0.261,0.055,0.514,0.053,0.771
			c-0.025,0.506-0.119,1.013-0.299,1.471c-0.176,0.461-0.4,0.904-0.711,1.276c-0.159,0.183-0.325,0.36-0.515,0.516
			c-0.091,0.081-0.189,0.156-0.291,0.229l-0.329,0.237l-0.357,0.257l-0.119,0.013l-1.876,0.203
			c-0.616,0.061-1.239,0.075-1.868,0.048c-0.626-0.02-1.263-0.109-1.89-0.278c-0.312-0.089-0.625-0.207-0.917-0.378
			c-0.146-0.083-0.281-0.193-0.402-0.314c-0.132-0.129-0.228-0.278-0.287-0.403L150.584,61.37z"/>
	</g>
	<g>
		<path fill="#977A67" d="M149.024,55.521c0.21,0.118,0.43,0.264,0.632,0.325c0.187,0.089,0.415,0.144,0.62,0.205
			c0.432,0.101,0.873,0.122,1.306,0.138c0.436,0.009,0.875-0.036,1.305-0.077c0.215-0.023,0.431-0.055,0.643-0.096l0.313-0.07
			c0.096-0.026,0.214-0.064,0.273-0.096l-0.303,0.078c0-0.023,0.077-0.081,0.121-0.128l0.156-0.158
			c0.105-0.104,0.207-0.209,0.317-0.299c0.211-0.192,0.455-0.329,0.709-0.478c0.258-0.147,0.528-0.297,0.83-0.48
			c0.154-0.091,0.31-0.192,0.481-0.305l0.565-0.381l0.27,0.059c0.115,0.225,0.209,0.471,0.242,0.711
			c0.042,0.244,0.053,0.494,0.023,0.737c-0.045,0.492-0.209,0.974-0.462,1.389c-0.25,0.419-0.571,0.796-0.973,1.053
			c-0.199,0.131-0.412,0.238-0.635,0.325l-0.343,0.118l-0.395,0.116l-0.268,0.079l-0.036-0.001
			c-0.177-0.004-0.297-0.026-0.438-0.038l-0.401-0.043c-0.265-0.028-0.525-0.067-0.786-0.116c-0.52-0.091-1.031-0.242-1.526-0.437
			c-0.496-0.193-0.966-0.465-1.394-0.776c-0.208-0.175-0.411-0.329-0.596-0.541c-0.2-0.198-0.302-0.408-0.441-0.613L149.024,55.521z
			"/>
	</g>
	<g>
		<path fill="#977A67" d="M148.194,50.399c0.124,0.177,0.239,0.223,0.398,0.313c0.147,0.076,0.309,0.132,0.476,0.175
			c0.334,0.086,0.692,0.123,1.051,0.138c0.359,0.021,0.722,0.026,1.085,0.012l0.542-0.017c0.175-0.009,0.37-0.019,0.519-0.039
			l-0.393,0.048c0.121-0.075,0.306-0.179,0.449-0.293c0.151-0.113,0.297-0.238,0.435-0.364c0.276-0.254,0.557-0.454,0.876-0.586
			c0.317-0.136,0.64-0.249,1.012-0.356c0.167-0.064,0.379-0.115,0.572-0.193c0.228-0.063,0.417-0.162,0.705-0.265l0.257,0.1
			c0.212,0.559,0.138,1.156-0.057,1.668c-0.191,0.518-0.511,0.952-0.875,1.31c-0.365,0.358-0.814,0.58-1.287,0.708
			c-0.236,0.065-0.472,0.118-0.708,0.168l-0.728,0.159l-0.304,0.066l-0.089-0.018c-0.233-0.046-0.42-0.097-0.626-0.152
			c-0.2-0.057-0.399-0.11-0.596-0.181c-0.392-0.141-0.781-0.295-1.16-0.484c-0.376-0.198-0.746-0.418-1.085-0.702
			c-0.167-0.142-0.33-0.297-0.464-0.483c-0.064-0.096-0.122-0.196-0.168-0.301c-0.054-0.12-0.08-0.227-0.09-0.319L148.194,50.399z"
			/>
	</g>
	<g>
		<path fill="#977A67" d="M148.196,44.725c0.102,0.154,0.225,0.274,0.331,0.344c0.129,0.094,0.25,0.187,0.39,0.267
			c0.275,0.163,0.564,0.303,0.869,0.425c0.303,0.123,0.601,0.25,0.911,0.356c0.307,0.1,0.621,0.229,0.904,0.308l-0.615-0.104
			c0.119-0.051,0.312-0.126,0.464-0.207c0.16-0.083,0.313-0.184,0.458-0.289c0.289-0.218,0.556-0.402,0.857-0.494
			c0.145-0.05,0.308-0.083,0.461-0.122c0.166-0.032,0.314-0.074,0.504-0.101c0.165-0.041,0.368-0.073,0.566-0.131
			c0.228-0.043,0.42-0.13,0.72-0.213l0.253,0.108c0.104,0.278,0.139,0.577,0.109,0.857c-0.021,0.292-0.111,0.552-0.22,0.818
			c-0.232,0.509-0.605,0.923-1.017,1.24c-0.418,0.309-0.912,0.447-1.402,0.495c-0.244,0.029-0.486,0.045-0.725,0.062
			c-0.246,0.021-0.456,0.035-0.744,0.046l-0.451,0.018l-0.165-0.121c-0.319-0.235-0.595-0.446-0.867-0.702
			c-0.268-0.251-0.534-0.505-0.778-0.786c-0.243-0.28-0.473-0.582-0.675-0.903c-0.101-0.16-0.192-0.333-0.268-0.51
			c-0.084-0.213-0.119-0.393-0.126-0.563L148.196,44.725z"/>
	</g>
	<g>
		<path fill="#977A67" d="M149.064,38.384c0.084,0.173,0.167,0.366,0.273,0.487c0.081,0.13,0.208,0.271,0.317,0.394
			c0.233,0.251,0.516,0.456,0.792,0.653c0.272,0.202,0.582,0.364,0.875,0.533c0.147,0.084,0.299,0.162,0.45,0.235
			c0.144,0.07,0.319,0.15,0.437,0.179l-0.424-0.159c-0.006-0.021,0.08-0.034,0.128-0.054l0.175-0.065l0.335-0.147
			c0.215-0.089,0.413-0.12,0.645-0.122c0.232-0.006,0.479-0.013,0.794-0.037c0.155-0.015,0.327-0.035,0.516-0.066
			c0.198-0.024,0.388-0.08,0.648-0.114l0.235,0.143c0.058,0.245,0.075,0.493,0.046,0.729c-0.038,0.23-0.086,0.477-0.199,0.684
			c-0.188,0.449-0.532,0.821-0.93,1.099c-0.396,0.286-0.868,0.452-1.337,0.465c-0.235,0.004-0.468-0.017-0.698-0.06
			c-0.114-0.02-0.229-0.043-0.343-0.07l-0.388-0.099l-0.341-0.087l-0.083-0.072c-0.198-0.172-0.327-0.31-0.481-0.465
			c-0.147-0.152-0.289-0.307-0.424-0.468c-0.272-0.32-0.509-0.672-0.722-1.041c-0.207-0.373-0.376-0.77-0.488-1.184
			c-0.049-0.214-0.099-0.407-0.113-0.639c-0.025-0.231,0.013-0.411,0.035-0.607L149.064,38.384z"/>
	</g>
	<g>
		<path fill="#977A67" d="M150.271,32.716c0,0,0.05,0.13,0.137,0.357c0.112,0.188,0.236,0.458,0.485,0.743
			c0.239,0.282,0.549,0.577,0.9,0.865c0.181,0.137,0.367,0.278,0.557,0.421c0.188,0.131,0.402,0.281,0.579,0.357
			c0.147,0.055,0.359,0.104,0.537,0.118c0.182,0.017,0.336,0.039,0.459,0.072c0.245,0.084,0.422,0.243,0.688,0.346
			c0.135,0.066,0.275,0.097,0.429,0.137c0.144,0.018,0.307,0.065,0.437,0.066c0.304,0.027,0.477,0.042,0.477,0.042l0.192,0.197
			c0,0,0.006,0.196-0.083,0.517c-0.039,0.166-0.136,0.334-0.262,0.534c-0.128,0.197-0.325,0.385-0.571,0.565
			c-0.496,0.349-1.285,0.544-2.009,0.377c-0.364-0.08-0.692-0.255-0.978-0.475c-0.289-0.224-0.53-0.463-0.792-0.75
			c-0.226-0.273-0.391-0.499-0.56-0.754c-0.167-0.246-0.314-0.5-0.435-0.759c-0.253-0.509-0.418-1.024-0.496-1.477
			c-0.085-0.445-0.08-0.839-0.05-1.109c0.054-0.238,0.085-0.375,0.085-0.375L150.271,32.716z"/>
	</g>
	<g>
		<path fill="#977A67" d="M152.331,27.597c-0.019,0.246,0.019,0.426,0.065,0.632c0.043,0.198,0.116,0.387,0.206,0.568
			c0.174,0.364,0.432,0.688,0.691,1.002c0.263,0.315,0.567,0.6,0.863,0.886c0.151,0.141,0.307,0.278,0.465,0.409
			c0.079,0.066,0.16,0.128,0.242,0.188c0.077,0.058,0.173,0.125,0.237,0.15l-0.418-0.264c0.036-0.008,0.137,0.002,0.21,0
			l0.243-0.003c0.163-0.006,0.32-0.012,0.471-0.002c0.303,0.003,0.579,0.07,0.847,0.141c0.272,0.07,0.524,0.144,0.831,0.212
			c0.303,0.059,0.657,0.08,1.161-0.018l0.227,0.157c0.059,0.542-0.195,1.083-0.59,1.484c-0.395,0.406-0.914,0.661-1.416,0.79
			c-0.507,0.136-1.013,0.153-1.478,0.043c-0.234-0.048-0.458-0.129-0.673-0.226l-0.321-0.151l-0.345-0.176l-0.366-0.187
			l-0.053-0.077l-0.231-0.336l-0.208-0.315c-0.136-0.209-0.265-0.421-0.387-0.638c-0.25-0.428-0.444-0.896-0.611-1.372
			c-0.163-0.479-0.262-0.991-0.277-1.509c-0.007-0.258,0.011-0.519,0.066-0.771c0.056-0.244,0.163-0.512,0.282-0.695L152.331,27.597
			z"/>
	</g>
	<g>
		<path fill="#977A67" d="M156.293,22.773l0.011,0.324l0.059,0.276c0.046,0.187,0.095,0.376,0.167,0.562
			c0.131,0.372,0.313,0.729,0.491,1.086c0.177,0.357,0.382,0.703,0.572,1.052l0.302,0.515c0.104,0.164,0.215,0.345,0.333,0.474
			l-0.294-0.4c0.009-0.019,0.091,0.019,0.144,0.029l0.186,0.044c0.124,0.028,0.244,0.046,0.348,0.08
			c0.218,0.05,0.378,0.144,0.558,0.244c0.091,0.059,0.183,0.095,0.294,0.156c0.105,0.034,0.235,0.11,0.378,0.137
			c0.146,0.047,0.311,0.069,0.504,0.099c0.194,0.028,0.397,0.024,0.656,0.054l0.185,0.204c-0.056,0.501-0.285,0.964-0.673,1.313
			c-0.187,0.186-0.418,0.323-0.665,0.448c-0.251,0.098-0.521,0.186-0.793,0.214c-0.547,0.069-1.103-0.014-1.555-0.249
			c-0.229-0.109-0.436-0.254-0.622-0.417c-0.094-0.08-0.184-0.166-0.271-0.253l-0.288-0.305l-0.269-0.283l-0.025-0.117l-0.147-0.68
			l-0.134-0.656c-0.089-0.435-0.127-0.887-0.159-1.335c-0.034-0.448-0.012-0.911,0.039-1.368c0.022-0.228,0.07-0.456,0.125-0.685
			c0.068-0.255,0.167-0.448,0.276-0.629L156.293,22.773z"/>
	</g>
	<g>
		<path fill="#977A67" d="M159.732,18.826c-0.022,0.221-0.013,0.444,0.022,0.61c0.032,0.188,0.066,0.383,0.126,0.573
			c0.107,0.379,0.267,0.749,0.421,1.116c0.164,0.365,0.333,0.726,0.507,1.085c0.09,0.178,0.179,0.356,0.281,0.528
			c0.098,0.167,0.226,0.348,0.334,0.476l0.061,0.207c-0.024-0.181,0.004-0.122,0.009-0.169l0.022-0.049
			c0.005-0.022,0.011-0.04,0.02-0.03c0.018,0.017,0.085,0.138,0.264,0.246c0.168,0.11,0.407,0.251,0.689,0.383
			c0.287,0.154,0.607,0.29,0.987,0.528l0.072,0.266c-0.113,0.19-0.241,0.361-0.38,0.507c-0.138,0.159-0.3,0.261-0.462,0.39
			c-0.335,0.211-0.722,0.381-1.173,0.428c-0.441,0.058-0.986-0.004-1.503-0.305c-0.256-0.152-0.494-0.37-0.683-0.637
			c-0.093-0.133-0.174-0.278-0.241-0.434c-0.068-0.184-0.105-0.268-0.167-0.6L159,24.152c-0.04-0.263-0.046-0.48-0.079-0.711
			l-0.084-0.676c-0.057-0.447-0.078-0.904-0.065-1.364c0-0.457,0.059-0.924,0.157-1.383c0.044-0.229,0.116-0.455,0.196-0.682
			c0.092-0.251,0.217-0.431,0.347-0.602L159.732,18.826z"/>
	</g>
	<g>
		<path fill="#977A67" d="M163.105,16.758c0,0,0.001,0.123,0.004,0.337c0.029,0.197,0.037,0.467,0.12,0.794
			c0.078,0.323,0.2,0.686,0.346,1.057c0.08,0.181,0.162,0.368,0.245,0.558c0.082,0.174,0.206,0.432,0.214,0.292
			c0.059,0.014,0.187,0.035,0.306,0.046c0.143,0,0.25,0.034,0.382,0.081c0.24,0.115,0.481,0.364,0.738,0.591
			c0.248,0.247,0.487,0.49,0.66,0.707c0.173,0.209,0.28,0.377,0.28,0.377l-0.019,0.274c0,0-0.495,0.587-1.365,0.779
			c-0.218,0.05-0.456,0.075-0.715,0.059c-0.257-0.009-0.538-0.061-0.811-0.195c-0.551-0.263-1.035-0.832-1.391-1.587
			c-0.235-0.542-0.167-0.76-0.196-1.028c-0.01-0.264,0.005-0.522,0.033-0.77c0.047-0.495,0.163-0.951,0.297-1.324
			c0.13-0.371,0.281-0.668,0.406-0.866c0.129-0.172,0.203-0.271,0.203-0.271L163.105,16.758z"/>
	</g>
	<g>
		<path fill="#977A67" d="M186.534,73.404c-0.25,0.042-0.492,0.088-0.786,0.068c-0.284-0.015-0.546-0.051-0.812-0.109
			c-0.532-0.11-1.049-0.279-1.534-0.502c-0.49-0.217-0.964-0.464-1.407-0.753c-0.225-0.141-0.444-0.288-0.662-0.441l-0.685-0.474
			l-0.34-0.235l0.029-0.875c0.015-0.433,0.013-0.828,0.117-1.222c0.091-0.391,0.279-0.76,0.507-1.114
			c0.225-0.353,0.52-0.691,0.876-0.989c0.177-0.146,0.382-0.287,0.601-0.397c0.226-0.113,0.481-0.197,0.747-0.203l0.176,0.212
			c-0.014,0.245,0.001,0.445,0.009,0.636c0.017,0.204,0.023,0.38,0.034,0.568c0.016,0.367,0.015,0.715-0.013,1.065
			c-0.027,0.347-0.07,0.689-0.186,1.015c-0.102,0.324-0.293,0.652-0.44,0.948l-0.311-1.111c0.088,0.174,0.236,0.38,0.374,0.557
			c0.145,0.181,0.293,0.36,0.447,0.535c0.311,0.346,0.621,0.697,0.956,1.02c0.337,0.315,0.675,0.649,1.058,0.906
			c0.186,0.136,0.395,0.258,0.589,0.354c0.184,0.109,0.432,0.194,0.675,0.266L186.534,73.404z"/>
	</g>
	<g>
		<path fill="#977A67" d="M194.645,71.942c-0.286,0.071-0.543,0.187-0.854,0.222c-0.309,0.051-0.622,0.082-0.929,0.083
			c-0.62,0.014-1.261-0.049-1.87-0.223c-0.311-0.076-0.612-0.179-0.909-0.297c-0.296-0.121-0.583-0.262-0.866-0.412
			c-0.28-0.155-0.558-0.319-0.833-0.495c-0.141-0.085-0.279-0.175-0.42-0.269c-0.146-0.101-0.269-0.179-0.445-0.333l-0.061-0.053
			l-0.176-0.344c-0.076-0.15-0.113-0.233-0.16-0.344c-0.047-0.104-0.086-0.207-0.116-0.312c-0.068-0.208-0.115-0.419-0.14-0.634
			c-0.047-0.43-0.009-0.87,0.079-1.299c0.084-0.43,0.267-0.849,0.496-1.23c0.237-0.379,0.56-0.72,0.969-0.958l0.256,0.101
			c0.088,0.223,0.149,0.417,0.216,0.604c0.07,0.187,0.119,0.357,0.189,0.526c0.111,0.331,0.237,0.634,0.337,0.926
			c0.099,0.292,0.2,0.574,0.273,0.856c0.039,0.141,0.062,0.284,0.081,0.426c0.014,0.07,0.02,0.142,0.025,0.211
			c0.003,0.063,0.021,0.152,0.006,0.172l-0.236-0.396c0.013,0.057,0.09,0.182,0.148,0.278c0.063,0.104,0.136,0.204,0.21,0.306
			c0.152,0.198,0.327,0.379,0.508,0.556c0.366,0.349,0.768,0.664,1.193,0.955c0.43,0.286,0.893,0.535,1.395,0.724
			c0.254,0.1,0.506,0.172,0.767,0.23c0.258,0.076,0.567,0.098,0.849,0.149L194.645,71.942z"/>
	</g>
	<g>
		<path fill="#977A67" d="M199.805,69.481c-0.293,0.059-0.57,0.145-0.876,0.183c-0.304,0.044-0.611,0.078-0.914,0.096
			c-0.608,0.04-1.229,0.054-1.843-0.006c-0.614-0.053-1.233-0.132-1.838-0.28c-0.303-0.071-0.605-0.148-0.908-0.238l-0.458-0.138
			c-0.158-0.051-0.301-0.086-0.492-0.159l-0.186-0.07l-0.28-0.373l-0.264-0.351l-0.23-0.332c-0.146-0.225-0.277-0.459-0.38-0.707
			c-0.217-0.49-0.31-1.037-0.326-1.591c-0.012-0.558,0.08-1.135,0.287-1.672c0.114-0.27,0.24-0.527,0.423-0.76
			c0.16-0.235,0.395-0.436,0.629-0.597l0.256,0.104c0.097,0.28,0.146,0.507,0.236,0.732c0.07,0.218,0.166,0.423,0.236,0.614
			l0.494,1.091c0.164,0.354,0.329,0.698,0.437,1.075c0.06,0.186,0.107,0.379,0.156,0.574l0.142,0.551l-0.466-0.443
			c0.066,0.062,0.186,0.154,0.292,0.223l0.341,0.213c0.233,0.136,0.475,0.265,0.719,0.39c0.491,0.242,0.993,0.481,1.513,0.686
			c0.519,0.204,1.049,0.404,1.598,0.551c0.548,0.158,1.099,0.257,1.695,0.359L199.805,69.481z"/>
	</g>
	<g>
		<path fill="#977A67" d="M205.171,66.171c-0.274,0.139-0.564,0.264-0.896,0.361c-0.313,0.083-0.633,0.151-0.956,0.2
			c-0.646,0.091-1.301,0.135-1.948,0.107c-1.313-0.02-2.551-0.299-3.872-0.572l-0.288-0.059l-0.394-0.597
			c-0.271-0.413-0.515-0.799-0.688-1.236c-0.175-0.431-0.262-0.899-0.316-1.377c-0.057-0.476-0.047-0.979,0.024-1.489
			c0.042-0.254,0.096-0.517,0.188-0.771c0.089-0.257,0.218-0.516,0.399-0.737l0.273,0.024c0.156,0.222,0.301,0.405,0.437,0.588
			c0.151,0.185,0.269,0.36,0.408,0.539c0.255,0.355,0.497,0.708,0.712,1.074c0.213,0.366,0.417,0.734,0.559,1.129
			c0.142,0.39,0.229,0.825,0.313,1.223l-0.682-0.656c0.468,0.316,1.004,0.561,1.54,0.788c0.539,0.22,1.086,0.438,1.643,0.624
			c0.558,0.177,1.122,0.356,1.701,0.462c0.289,0.053,0.58,0.089,0.875,0.111c0.276,0.02,0.586,0.025,0.9-0.003L205.171,66.171z"/>
	</g>
	<g>
		<path fill="#977A67" d="M209.029,61.29c-0.059,0.125-0.154,0.274-0.286,0.403c-0.121,0.121-0.256,0.23-0.402,0.314
			c-0.291,0.171-0.604,0.288-0.916,0.377c-0.627,0.169-1.264,0.259-1.891,0.279c-0.628,0.027-1.252,0.012-1.867-0.048l-1.875-0.203
			l-0.12-0.013l-0.356-0.257l-0.329-0.237c-0.101-0.074-0.2-0.148-0.291-0.229c-0.189-0.156-0.355-0.333-0.515-0.516
			c-0.311-0.372-0.534-0.815-0.71-1.276c-0.181-0.458-0.274-0.965-0.3-1.471c-0.002-0.258,0-0.511,0.054-0.771
			c0.032-0.252,0.127-0.514,0.236-0.757l0.27-0.053c0.418,0.34,0.722,0.638,1.047,0.913c0.31,0.278,0.598,0.538,0.872,0.802
			c0.272,0.265,0.542,0.52,0.766,0.813c0.11,0.148,0.221,0.297,0.319,0.456l0.148,0.236c0.044,0.075,0.106,0.163,0.128,0.211
			l-0.476-0.27c0.22,0.125,0.491,0.254,0.748,0.355c0.262,0.106,0.527,0.201,0.794,0.294c0.534,0.179,1.07,0.356,1.611,0.503
			c0.54,0.136,1.084,0.271,1.626,0.312c0.27,0.019,0.537,0.015,0.792-0.031c0.269-0.061,0.477-0.095,0.712-0.311L209.029,61.29z"/>
	</g>
	<g>
		<path fill="#977A67" d="M210.569,55.463c-0.139,0.206-0.242,0.415-0.441,0.613c-0.185,0.212-0.388,0.366-0.596,0.541
			c-0.428,0.312-0.897,0.583-1.395,0.777c-0.495,0.194-1.006,0.346-1.525,0.436c-0.261,0.049-0.521,0.088-0.786,0.117l-0.401,0.043
			c-0.141,0.011-0.261,0.033-0.438,0.038l-0.035,0.001l-0.268-0.079l-0.395-0.116l-0.343-0.118
			c-0.224-0.087-0.437-0.194-0.636-0.325c-0.401-0.256-0.724-0.634-0.973-1.053c-0.254-0.416-0.418-0.897-0.463-1.389
			c-0.029-0.243-0.018-0.493,0.023-0.737c0.033-0.241,0.127-0.486,0.242-0.711l0.27-0.059l0.565,0.381
			c0.172,0.113,0.327,0.214,0.481,0.305c0.302,0.183,0.571,0.333,0.829,0.48c0.255,0.149,0.499,0.286,0.71,0.478
			c0.11,0.09,0.213,0.195,0.317,0.299l0.155,0.158c0.045,0.048,0.121,0.105,0.121,0.128l-0.303-0.078
			c0.06,0.031,0.177,0.07,0.273,0.096l0.312,0.069c0.212,0.041,0.427,0.073,0.643,0.096c0.431,0.041,0.869,0.086,1.305,0.077
			c0.433-0.016,0.873-0.038,1.306-0.138c0.205-0.061,0.434-0.116,0.62-0.205c0.203-0.062,0.422-0.207,0.632-0.325L210.569,55.463z"
			/>
	</g>
	<g>
		<path fill="#977A67" d="M211.459,50.256c-0.011,0.092-0.036,0.199-0.09,0.319c-0.046,0.105-0.104,0.205-0.168,0.301
			c-0.134,0.186-0.296,0.341-0.464,0.483c-0.339,0.284-0.709,0.504-1.085,0.702c-0.379,0.189-0.768,0.343-1.16,0.484
			c-0.196,0.071-0.396,0.125-0.596,0.182c-0.206,0.055-0.393,0.105-0.626,0.152l-0.09,0.018l-0.304-0.066l-0.729-0.159
			c-0.235-0.051-0.472-0.103-0.708-0.168c-0.472-0.128-0.921-0.35-1.286-0.708c-0.363-0.358-0.683-0.792-0.874-1.31
			c-0.195-0.512-0.27-1.109-0.058-1.668l0.258-0.1c0.288,0.103,0.477,0.202,0.705,0.265c0.192,0.079,0.405,0.129,0.572,0.193
			c0.372,0.107,0.695,0.221,1.012,0.357c0.319,0.131,0.6,0.332,0.876,0.586c0.138,0.126,0.283,0.251,0.436,0.364
			c0.143,0.114,0.327,0.219,0.448,0.293l-0.394-0.048c0.149,0.02,0.344,0.03,0.52,0.039l0.542,0.016
			c0.364,0.015,0.727,0.009,1.086-0.012c0.359-0.016,0.718-0.052,1.052-0.139c0.167-0.043,0.328-0.1,0.476-0.175
			c0.159-0.09,0.274-0.137,0.398-0.313L211.459,50.256z"/>
	</g>
	<g>
		<path fill="#977A67" d="M211.462,44.568c-0.008,0.17-0.042,0.35-0.126,0.563c-0.076,0.177-0.167,0.35-0.269,0.51
			c-0.202,0.321-0.432,0.623-0.675,0.903c-0.243,0.281-0.509,0.535-0.777,0.786c-0.271,0.256-0.547,0.466-0.867,0.702l-0.164,0.122
			l-0.451-0.018c-0.289-0.012-0.498-0.025-0.744-0.046c-0.239-0.017-0.481-0.032-0.726-0.062c-0.489-0.048-0.983-0.186-1.402-0.495
			c-0.411-0.317-0.783-0.731-1.016-1.241c-0.109-0.266-0.199-0.526-0.221-0.818c-0.03-0.28,0.006-0.579,0.108-0.857l0.254-0.108
			c0.3,0.083,0.491,0.17,0.72,0.213c0.198,0.058,0.401,0.09,0.566,0.131c0.189,0.026,0.338,0.069,0.504,0.101
			c0.152,0.04,0.316,0.072,0.461,0.122c0.302,0.092,0.568,0.276,0.857,0.494c0.145,0.104,0.299,0.206,0.459,0.289
			c0.152,0.081,0.346,0.155,0.464,0.207l-0.615,0.104c0.283-0.078,0.597-0.208,0.904-0.308c0.31-0.106,0.607-0.233,0.91-0.355
			c0.305-0.123,0.594-0.263,0.869-0.426c0.14-0.08,0.261-0.173,0.39-0.267c0.105-0.07,0.229-0.19,0.33-0.344L211.462,44.568z"/>
	</g>
	<g>
		<path fill="#977A67" d="M210.609,38.17c0.021,0.196,0.06,0.376,0.034,0.607c-0.014,0.232-0.064,0.425-0.112,0.639
			c-0.112,0.414-0.281,0.811-0.488,1.184c-0.213,0.369-0.449,0.72-0.722,1.041c-0.136,0.162-0.277,0.316-0.424,0.469
			c-0.154,0.155-0.283,0.293-0.481,0.465l-0.084,0.073l-0.341,0.086l-0.389,0.099c-0.115,0.027-0.229,0.05-0.344,0.07
			c-0.229,0.043-0.463,0.064-0.697,0.06c-0.47-0.014-0.941-0.179-1.338-0.465c-0.397-0.278-0.74-0.65-0.929-1.099
			c-0.113-0.207-0.161-0.454-0.198-0.684c-0.029-0.236-0.013-0.484,0.045-0.729l0.236-0.143c0.261,0.034,0.45,0.089,0.648,0.114
			c0.188,0.031,0.361,0.051,0.516,0.066c0.315,0.024,0.562,0.031,0.794,0.037c0.231,0.002,0.43,0.033,0.645,0.123l0.335,0.147
			l0.175,0.065c0.049,0.02,0.134,0.032,0.128,0.054l-0.425,0.159c0.118-0.029,0.293-0.109,0.438-0.179
			c0.151-0.073,0.303-0.151,0.45-0.235c0.293-0.168,0.602-0.332,0.874-0.533c0.276-0.197,0.559-0.402,0.792-0.653
			c0.108-0.123,0.236-0.264,0.317-0.395c0.106-0.121,0.189-0.314,0.273-0.487L210.609,38.17z"/>
	</g>
	<g>
		<path fill="#977A67" d="M209.405,32.476c0,0,0.031,0.136,0.085,0.375c0.03,0.27,0.036,0.664-0.05,1.108
			c-0.077,0.453-0.242,0.968-0.496,1.477c-0.121,0.259-0.268,0.513-0.435,0.759c-0.169,0.255-0.333,0.48-0.56,0.754
			c-0.262,0.287-0.503,0.527-0.792,0.75c-0.286,0.22-0.614,0.395-0.978,0.475c-0.725,0.167-1.515-0.028-2.01-0.377
			c-0.247-0.18-0.443-0.368-0.571-0.565c-0.125-0.2-0.223-0.368-0.262-0.534c-0.089-0.321-0.082-0.517-0.082-0.517l0.191-0.197
			c0,0,0.174-0.016,0.477-0.042c0.13-0.001,0.294-0.048,0.438-0.066c0.153-0.04,0.294-0.071,0.429-0.137
			c0.266-0.103,0.443-0.262,0.688-0.346c0.123-0.034,0.277-0.056,0.459-0.072c0.179-0.015,0.39-0.063,0.537-0.119
			c0.177-0.076,0.392-0.227,0.579-0.357c0.189-0.144,0.376-0.285,0.557-0.421c0.351-0.288,0.66-0.583,0.899-0.865
			c0.249-0.286,0.372-0.555,0.485-0.743c0.087-0.227,0.136-0.357,0.136-0.357L209.405,32.476z"/>
	</g>
	<g>
		<path fill="#977A67" d="M207.336,27.265c0.119,0.183,0.227,0.451,0.282,0.695c0.056,0.252,0.074,0.513,0.066,0.771
			c-0.015,0.518-0.114,1.029-0.276,1.509c-0.166,0.477-0.36,0.944-0.61,1.373c-0.122,0.216-0.251,0.429-0.387,0.638l-0.208,0.315
			l-0.23,0.336l-0.054,0.077l-0.365,0.187l-0.346,0.176l-0.321,0.151c-0.216,0.097-0.439,0.177-0.673,0.226
			c-0.466,0.109-0.972,0.092-1.479-0.043c-0.502-0.129-1.021-0.384-1.415-0.791c-0.396-0.401-0.649-0.943-0.591-1.484l0.227-0.157
			c0.504,0.097,0.857,0.076,1.161,0.018c0.307-0.068,0.559-0.142,0.831-0.212c0.269-0.07,0.544-0.138,0.847-0.141
			c0.151-0.009,0.31-0.003,0.472,0.003l0.243,0.003c0.073,0.002,0.174-0.008,0.21,0l-0.419,0.264
			c0.064-0.026,0.161-0.093,0.237-0.15c0.082-0.06,0.164-0.122,0.242-0.188c0.159-0.131,0.314-0.268,0.466-0.409
			c0.296-0.287,0.601-0.571,0.862-0.887c0.26-0.314,0.517-0.639,0.691-1.002c0.09-0.181,0.162-0.37,0.205-0.568
			c0.047-0.206,0.085-0.386,0.065-0.632L207.336,27.265z"/>
	</g>
	<g>
		<path fill="#977A67" d="M203.377,22.45c0.109,0.181,0.208,0.374,0.276,0.629c0.055,0.229,0.103,0.457,0.125,0.685
			c0.051,0.457,0.072,0.919,0.038,1.368c-0.031,0.449-0.069,0.9-0.159,1.335l-0.134,0.656l-0.147,0.679l-0.025,0.117l-0.268,0.283
			l-0.288,0.305c-0.088,0.087-0.179,0.173-0.272,0.253c-0.186,0.163-0.393,0.307-0.621,0.417c-0.452,0.234-1.009,0.317-1.555,0.248
			c-0.546-0.061-1.084-0.295-1.458-0.662c-0.388-0.349-0.617-0.812-0.674-1.313l0.186-0.204c0.259-0.03,0.462-0.027,0.656-0.054
			c0.192-0.029,0.357-0.052,0.504-0.099c0.144-0.026,0.273-0.103,0.379-0.137c0.11-0.061,0.202-0.097,0.294-0.156
			c0.18-0.1,0.34-0.194,0.558-0.244c0.104-0.034,0.225-0.052,0.348-0.08l0.187-0.044c0.053-0.011,0.135-0.048,0.143-0.029
			l-0.293,0.4c0.117-0.128,0.229-0.31,0.332-0.473l0.303-0.515c0.19-0.349,0.395-0.695,0.572-1.052s0.359-0.714,0.491-1.086
			c0.072-0.186,0.12-0.375,0.166-0.562l0.06-0.276l0.011-0.324L203.377,22.45z"/>
	</g>
	<g>
		<path fill="#977A67" d="M199.931,18.478c0.13,0.171,0.255,0.351,0.347,0.602c0.08,0.227,0.151,0.453,0.196,0.682
			c0.099,0.459,0.156,0.926,0.156,1.383c0.014,0.459-0.008,0.917-0.064,1.364l-0.085,0.676c-0.032,0.231-0.039,0.448-0.079,0.711
			l0.062-0.207c-0.062,0.332-0.1,0.416-0.167,0.6c-0.067,0.155-0.148,0.301-0.241,0.434c-0.188,0.267-0.427,0.484-0.683,0.637
			c-0.518,0.301-1.063,0.362-1.504,0.305c-0.451-0.046-0.838-0.217-1.174-0.428c-0.161-0.129-0.324-0.231-0.461-0.39
			c-0.141-0.146-0.269-0.317-0.381-0.507l0.072-0.266c0.38-0.238,0.701-0.374,0.987-0.528c0.282-0.131,0.521-0.272,0.689-0.383
			c0.18-0.108,0.246-0.229,0.265-0.246c0.009-0.01,0.014,0.007,0.02,0.03l0.022,0.049c0.004,0.046,0.032-0.012,0.008,0.168
			l0.062-0.207c0.109-0.129,0.236-0.31,0.335-0.477c0.102-0.172,0.19-0.35,0.28-0.528c0.174-0.359,0.344-0.72,0.508-1.085
			c0.154-0.367,0.313-0.736,0.421-1.115c0.061-0.19,0.096-0.384,0.127-0.573c0.035-0.166,0.045-0.389,0.022-0.61L199.931,18.478z"/>
	</g>
	<g>
		<path fill="#977A67" d="M196.56,16.414c0,0,0.073,0.098,0.203,0.271c0.125,0.198,0.275,0.496,0.405,0.866
			c0.135,0.373,0.25,0.828,0.298,1.323c0.027,0.248,0.043,0.506,0.033,0.77c-0.028,0.266,0.038,0.49-0.197,1.029
			c-0.355,0.755-0.84,1.323-1.391,1.586c-0.273,0.133-0.554,0.185-0.811,0.194c-0.261,0.016-0.498-0.009-0.716-0.059
			c-0.87-0.192-1.365-0.779-1.365-0.779l-0.018-0.274c0,0,0.105-0.168,0.279-0.377c0.173-0.217,0.412-0.46,0.66-0.707
			c0.257-0.227,0.499-0.476,0.739-0.59c0.133-0.048,0.239-0.082,0.382-0.082c0.119-0.011,0.247-0.031,0.306-0.045
			c0.01,0.138,0.132-0.116,0.214-0.291c0.084-0.19,0.166-0.377,0.245-0.558c0.146-0.372,0.269-0.735,0.347-1.057
			c0.083-0.328,0.091-0.597,0.12-0.794c0.003-0.214,0.004-0.337,0.004-0.337L196.56,16.414z"/>
	</g>
	
		<text transform="matrix(1 0 0 1 89.4019 202.7666)" fill="#FFFFFF" stroke="#231F20" stroke-miterlimit="10" font-family="'Habana'" font-size="24.4333" letter-spacing="-2">AC</text>
	
		<text transform="matrix(1 0 0 1 165.8115 53.0596)" fill="#FFFFFF" font-family="'IM_FELL_Double_Pica_Roman'" font-size="24.4333" letter-spacing="-2">AV</text>
</g>
</svg>
